# xmcd
#
# Track frame offsets: 
#        150
#        14595
#        28523
#        42727
#        56470
#        70919
#        86206
#        101141
#        115180
#        128071
#        142065
#        158116
#        173388
#        187823
#        202677
#        216610
#        230577
#        245911
#        259672
#        274705
#        288323
#        302782
#
# Disc length: 4237 seconds
#
# Revision: 0
# Processed by: cddbd v1.5.2PL0 Copyright (c) Steve Scherf et al.
# Submitted via: ExactAudioCopy v0.99pb4
#
DISCID=47108b16
DTITLE=Sylvester Weaver - Volume 1 DOCD-5112
DYEAR=1992
DGENRE=Blues
TTITLE0=01 Guitar blues
TTITLE1=02 Guitar rag (71997)
TTITLE2=03 Weaver`s blues
TTITLE3=04 Smoketown strut
TTITLE4=05 Mixing them up in C
TTITLE5=06 I`m busy and you can`t come in
TTITLE6=07 Steel string blues (E. L. Coleman -Instrumental Trio)
TTITLE7=08 Where shall I be? (Martin-Weaver-Withers)
TTITLE8=09 I am happy in Jesus (Martin-Weaver-Withers)
TTITLE9=10 Gonna ramble blues (Sara Martin, vocal)
TTITLE10=11 Teasing brown blues (Sara Martin, vocal)
TTITLE11=12 True love blues
TTITLE12=13 Poor boy blues
TTITLE13=14 Six-string banjo piece
TTITLE14=15 Damfino stump
TTITLE15=16 Guitar rag (80727)
TTITLE16=17 Loving is what I crave (Sara Martin, vocal)
TTITLE17=18 Useless blues (Sara Martin, vocal)
TTITLE18=19 Black hearse blues (Sara Martin, vocal)
TTITLE19=20 Orn`ry blues (Sara Martin, vocal)
TTITLE20=21 Dad`s blues
TTITLE21=22 What makes a man blue?
EXTD=
EXTT0=
EXTT1=
EXTT2=
EXTT3=
EXTT4=
EXTT5=
EXTT6=
EXTT7=
EXTT8=
EXTT9=
EXTT10=
EXTT11=
EXTT12=
EXTT13=
EXTT14=
EXTT15=
EXTT16=
EXTT17=
EXTT18=
EXTT19=
EXTT20=
EXTT21=
PLAYORDER=
